<?xml version="1.0" encoding="UTF-8"?>
<svg id="Layer_2" xmlns="http://www.w3.org/2000/svg" version="1.1" viewBox="0 0 1080 1080">
  <!-- Generator: Adobe Illustrator 29.3.1, SVG Export Plug-In . SVG Version: 2.1.0 Build 151)  -->
  <defs>
    <style>
      .st0 {
        fill: #fff;
      }
    </style>
  </defs>
  <polygon class="st0" points="524.99 392.65 524.99 528.16 498.17 528.16 498.17 429.54 476 451.71 457.03 470.68 438.06 451.71 415.89 429.54 415.89 528.16 389.07 528.16 389.07 392.65 416.93 392.65 457.03 432.75 497.13 392.65 524.99 392.65"/>
  <rect class="st0" x="555.01" y="551.31" width="26.82" height="135.52"/>
  <rect class="st0" x="664.11" y="551.31" width="26.82" height="135.52"/>
  <rect class="st0" x="389.07" y="578.66" width="26.82" height="53.98"/>
  <rect class="st0" x="498.17" y="624.4" width="26.82" height="62.95"/>
  <rect class="st0" x="443.62" y="497.28" width="26.82" height="135.92" transform="translate(1022.27 108.22) rotate(90)"/>
  <rect class="st0" x="443.62" y="551.1" width="26.82" height="135.92" transform="translate(1076.09 162.04) rotate(90)"/>
  <rect class="st0" x="609.56" y="551.1" width="26.82" height="135.92" transform="translate(1242.04 -3.91) rotate(90)"/>
  <rect class="st0" x="443.62" y="605.98" width="26.82" height="135.92" transform="translate(1130.97 216.91) rotate(90)"/>
  <g>
    <rect class="st0" x="555.01" y="440.6" width="26.82" height="87.57"/>
    <rect class="st0" x="664.11" y="440.6" width="26.82" height="87.57"/>
    <rect class="st0" x="609.56" y="446.8" width="26.82" height="135.92" transform="translate(1137.73 -108.21) rotate(90)"/>
    <rect class="st0" x="609.56" y="338.1" width="26.82" height="135.92" transform="translate(1029.03 -216.91) rotate(90)"/>
    <rect class="st0" x="609.56" y="386.05" width="26.82" height="135.92" transform="translate(1076.98 -168.96) rotate(90)"/>
  </g>
</svg>